<svg xmlns="http://www.w3.org/2000/svg" width="45" height="60" viewBox="0 0 45 60" fill="none"><path d="M33.7 10.9091V11.4091H34.2H42.3C42.849 11.4091 43.4002 11.6727 43.8235 12.1858C44.2491 12.7017 44.5 13.4187 44.5 14.1818C44.5 14.945 44.2491 15.662 43.8235 16.1778C43.4002 16.6909 42.849 16.9545 42.3 16.9545H41.4H40.9V17.4545V54.5455C40.9 55.8873 40.4594 57.1592 39.6963 58.0842C38.9354 59.0065 37.9264 59.5 36.9 59.5H8.1C7.07358 59.5 6.06458 59.0065 5.30371 58.0842C4.54058 57.1592 4.1 55.8873 4.1 54.5455V17.4545V16.9545H3.6H2.7C2.15097 16.9545 1.59981 16.6909 1.1765 16.1778C0.750933 15.662 0.5 14.945 0.5 14.1818C0.5 13.4187 0.750933 12.7017 1.1765 12.1858C1.59981 11.6727 2.15097 11.4091 2.7 11.4091H10.8H11.3V10.9091V7.63636C11.3 5.71589 11.9302 3.88901 13.0309 2.55483C14.1294 1.22339 15.5962 0.5 17.1 0.5H27.9C29.4038 0.5 30.8706 1.22339 31.9691 2.55483C33.0698 3.88901 33.7 5.71589 33.7 7.63636V10.9091ZM16.0779 6.54678L16.4636 6.86497L16.0779 6.54678C15.8284 6.84929 15.7 7.24222 15.7 7.63636V10.9091V11.4091H16.2H28.8H29.3V10.9091V7.63636C29.3 7.24222 29.1716 6.84929 28.9221 6.54678C28.6703 6.24154 28.3058 6.04545 27.9 6.04545H17.1C16.6943 6.04545 16.3297 6.24154 16.0779 6.54678ZM36 53.9545H36.5V53.4545V17.4545V16.9545H36H9H8.5V17.4545V53.4545V53.9545H9H36ZM19.3 26.1818V43.6364C19.3 44.3995 19.0491 45.1165 18.6235 45.6323C18.2002 46.1454 17.649 46.4091 17.1 46.4091C16.551 46.4091 15.9998 46.1454 15.5765 45.6323C15.1509 45.1165 14.9 44.3995 14.9 43.6364V26.1818C14.9 25.4187 15.1509 24.7017 15.5765 24.1858C15.9998 23.6727 16.551 23.4091 17.1 23.4091C17.649 23.4091 18.2002 23.6727 18.6235 24.1858C19.0491 24.7017 19.3 25.4187 19.3 26.1818ZM30.1 26.1818V43.6364C30.1 44.3995 29.8491 45.1165 29.4235 45.6323C29.0002 46.1454 28.449 46.4091 27.9 46.4091C27.351 46.4091 26.7998 46.1454 26.3765 45.6323C25.9509 45.1165 25.7 44.3995 25.7 43.6364V26.1818C25.7 25.4187 25.9509 24.7017 26.3765 24.1858C26.7998 23.6727 27.351 23.4091 27.9 23.4091C28.449 23.4091 29.0002 23.6727 29.4235 24.1858C29.8491 24.7017 30.1 25.4187 30.1 26.1818Z" fill="#7900FB" stroke="black"/></svg>