<svg xmlns="http://www.w3.org/2000/svg" width="43" height="53" viewBox="0 0 43 53" fill="none"><path d="M0 1.875C0 1.37772 0.148158 0.900806 0.411881 0.549175C0.675604 0.197544 1.03329 0 1.40625 0H5.625C5.93868 0.000115543 6.24333 0.140065 6.49049 0.397593C6.73766 0.65512 6.91315 1.01544 6.98906 1.42125L8.12813 7.5H40.7813C40.9949 7.50008 41.2056 7.56504 41.3976 7.68995C41.5896 7.81486 41.7577 7.99644 41.8892 8.2209C42.0206 8.44536 42.112 8.70681 42.1564 8.9854C42.2008 9.264 42.197 9.55241 42.1453 9.82875L37.9266 32.3288C37.8507 32.7346 37.6752 33.0949 37.428 33.3524C37.1808 33.6099 36.8762 33.7499 36.5625 33.75H11.25C10.9363 33.7499 10.6317 33.6099 10.3845 33.3524C10.1373 33.0949 9.96185 32.7346 9.88594 32.3288L4.52813 3.75H1.40625C1.03329 3.75 0.675604 3.55246 0.411881 3.20082C0.148158 2.84919 0 2.37228 0 1.875ZM8.83125 11.25L12.3469 30H35.4656L38.9813 11.25H8.83125ZM14.0625 41.25C13.3166 41.25 12.6012 41.6451 12.0738 42.3484C11.5463 43.0516 11.25 44.0054 11.25 45C11.25 45.9946 11.5463 46.9484 12.0738 47.6516C12.6012 48.3549 13.3166 48.75 14.0625 48.75C14.8084 48.75 15.5238 48.3549 16.0512 47.6516C16.5787 46.9484 16.875 45.9946 16.875 45C16.875 44.0054 16.5787 43.0516 16.0512 42.3484C15.5238 41.6451 14.8084 41.25 14.0625 41.25ZM8.4375 45C8.4375 43.0109 9.03013 41.1032 10.085 39.6967C11.1399 38.2902 12.5707 37.5 14.0625 37.5C15.5543 37.5 16.9851 38.2902 18.04 39.6967C19.0949 41.1032 19.6875 43.0109 19.6875 45C19.6875 46.9891 19.0949 48.8968 18.04 50.3033C16.9851 51.7098 15.5543 52.5 14.0625 52.5C12.5707 52.5 11.1399 51.7098 10.085 50.3033C9.03013 48.8968 8.4375 46.9891 8.4375 45ZM33.75 41.25C33.0041 41.25 32.2887 41.6451 31.7613 42.3484C31.2338 43.0516 30.9375 44.0054 30.9375 45C30.9375 45.9946 31.2338 46.9484 31.7613 47.6516C32.2887 48.3549 33.0041 48.75 33.75 48.75C34.4959 48.75 35.2113 48.3549 35.7387 47.6516C36.2662 46.9484 36.5625 45.9946 36.5625 45C36.5625 44.0054 36.2662 43.0516 35.7387 42.3484C35.2113 41.6451 34.4959 41.25 33.75 41.25ZM28.125 45C28.125 43.0109 28.7176 41.1032 29.7725 39.6967C30.8274 38.2902 32.2582 37.5 33.75 37.5C35.2418 37.5 36.6726 38.2902 37.7275 39.6967C38.7824 41.1032 39.375 43.0109 39.375 45C39.375 46.9891 38.7824 48.8968 37.7275 50.3033C36.6726 51.7098 35.2418 52.5 33.75 52.5C32.2582 52.5 30.8274 51.7098 29.7725 50.3033C28.7176 48.8968 28.125 46.9891 28.125 45Z" fill="#7900FB" /></svg>