<svg xmlns="http://www.w3.org/2000/svg" width="113" height="109" viewBox="0 0 113 109" fill="none">
  <path d="M67.6783 81.2006C64.411 81.2006 61.6495 80.1104 59.3935 77.93C57.1376 75.7496 56.0096 73.0804 56.0096 69.9226C56.0096 66.7648 57.1376 64.0956 59.3935 61.9152C61.6495 59.7348 64.411 58.6446 67.6783 58.6446C70.9455 58.6446 73.7071 59.7348 75.963 61.9152C78.2189 64.0956 79.3469 66.7648 79.3469 69.9226C79.3469 73.0804 78.2189 75.7496 75.963 77.93C73.7071 80.1104 70.9455 81.2006 67.6783 81.2006ZM23.3374 99.2454C20.7703 99.2454 18.5719 98.3612 16.7422 96.5928C14.9126 94.8244 13.9993 92.7011 14.0024 90.223V27.0663C14.0024 24.5851 14.9173 22.4603 16.7469 20.6919C18.5766 18.9236 20.7734 18.0409 23.3374 18.0439H28.0048V9.02148H37.3398V18.0439H74.6794V9.02148H84.0144V18.0439H88.6818C91.2489 18.0439 93.4473 18.9281 95.277 20.6965C97.1066 22.4648 98.0199 24.5881 98.0168 27.0663V90.223C98.0168 92.7041 97.1019 94.8289 95.2723 96.5973C93.4426 98.3657 91.2458 99.2484 88.6818 99.2454H23.3374ZM23.3374 90.223H88.6818V45.111H23.3374V90.223Z" fill="white"/>
</svg>