<svg xmlns="http://www.w3.org/2000/svg" width="74" height="81" viewBox="0 0 74 81" fill="none">
  <path d="M55.428 0.00194162C54.2864 0.060032 53.6914 1.51899 54.7366 3.55216L58.5957 2.79028C57.5506 0.754881 56.3285 -0.0449775 55.428 0.00194162ZM49.3178 2.0351C48.755 2.0351 48.2565 2.26076 47.8706 2.64505C46.729 3.78452 46.6486 6.39858 49.1409 8.90094C47.7098 12.4534 44.3492 19.1338 39.461 18.5529L44.6225 20.7424C44.1884 21.0999 43.706 21.435 43.1432 21.7478C14.3768 10.0404 0 44.8276 0 44.8276C8.21668 60.445 0.659264 66.9243 0.659264 66.9243L1.91508 81H6.54762L7.06056 71.8396C7.06056 71.8396 12.2864 71.1693 17.1586 57.6968C21.8216 59.8864 28.5751 59.73 33.6562 58.4341L32.997 60.0204L26.9832 62.5005C32 63.126 36.3898 61.9866 39.6379 60.6014C39.0912 57.2276 38.9143 53.5635 40.2006 48.8045L44.6869 81H48.8515C48.8515 81 48.1118 64.2432 54.3829 48.9386C55.1869 47.1959 55.8944 45.5649 56.4893 43.6434L56.8109 46.1234L55.1225 51.3069C55.1225 51.3069 61.3936 47.7991 59.8178 29.8582C63.5161 30.7295 67.1501 30.238 70.5268 28.8304C71.379 28.4506 72.0544 27.5345 72.3277 26.3727C73.1317 22.8873 73.8553 19.1114 74 15.8047L72.4403 15.9835C72.4081 12.5651 69.0314 13.0566 70.0444 16.1622L68.3561 16.2739L67.5682 12.8109C67.5682 12.8109 70.2856 10.0627 73.7427 11.2245C73.598 10.5096 73.389 9.884 73.1156 9.3031C70.8966 4.65587 64.3844 3.0919 53.4342 5.81768C52.1478 3.08296 50.572 2.0284 49.3178 2.0351ZM57.3415 9.59355C59.3354 9.90635 60.863 10.5543 62.1976 11.7384H59.6409C59.3836 12.8109 58.4349 13.6152 57.3094 13.6152C56.1838 13.6152 55.2351 12.8109 54.9778 11.7384H52.4855C53.1608 11.0682 54.9457 9.57121 57.3415 9.59355ZM58.8852 50.1674C56.4411 56.9372 53.3377 57.7192 53.3377 57.7192C51.183 66.1423 51.6654 73.761 53.6271 80.933H57.1968C56.5858 70.9459 56.6823 63.4165 58.8852 50.1674ZM18.5092 61.4057L15.6471 67.3711L20.0207 72.9791L22.2558 80.933H27.0636L23.8316 62.6569L18.5092 61.4057Z" fill="white"/>
</svg>