<svg width="100" height="100" viewBox="0 0 100 100" fill="none" xmlns="http://www.w3.org/2000/svg">
<g id="ic:baseline-pix">
<path id="Vector" d="M64.3751 68.8337L51.8334 56.2921C51.3751 55.8337 50.8334 55.7504 50.5417 55.7504C50.2501 55.7504 49.7084 55.8337 49.2501 56.2921L36.6667 68.8754C35.2501 70.2921 33.0417 72.5837 25.6667 72.5837L41.1251 88.0004C43.4688 90.3412 46.6459 91.6561 49.9584 91.6561C53.2709 91.6561 56.448 90.3412 58.7917 88.0004L74.2917 72.5421C70.5001 72.5421 67.3334 71.7921 64.3751 68.8337ZM36.6667 31.1254L49.2501 43.7087C49.5834 44.0421 50.0834 44.2504 50.5417 44.2504C51.0001 44.2504 51.5001 44.0421 51.8334 43.7087L64.2917 31.2504C67.2501 28.1671 70.6251 27.4587 74.4167 27.4587L58.9167 12.0004C56.573 9.65955 53.3959 8.34473 50.0834 8.34473C46.7709 8.34473 43.5938 9.65955 41.2501 12.0004L25.7917 27.4171C33.1251 27.4171 35.3751 29.8337 36.6667 31.1254Z" fill="white"/>
<path id="Vector_2" d="M87.9582 41.042L78.5832 31.6253H73.3332C71.0832 31.6253 68.8332 32.542 67.2916 34.167L54.7916 46.667C53.6249 47.8337 52.0832 48.417 50.5416 48.417C48.9541 48.3946 47.4345 47.769 46.2916 46.667L33.7082 34.042C32.1249 32.4587 29.9582 31.542 27.6666 31.542H21.5416L11.9999 41.1253C9.65907 43.4691 8.34424 46.6461 8.34424 49.9587C8.34424 53.2712 9.65907 56.4482 11.9999 58.792L21.5416 68.3753H27.7082C29.9582 68.3753 32.1249 67.4587 33.7499 65.8753L46.3332 53.292C47.4999 52.1253 49.0416 51.542 50.5832 51.542C52.1249 51.542 53.6666 52.1253 54.8332 53.292L67.3749 65.8337C68.9582 67.417 71.1249 68.3337 73.4166 68.3337H78.6666L88.0416 58.917C90.3922 56.531 91.703 53.3117 91.6874 49.9623C91.6718 46.6129 90.3311 43.4059 87.9582 41.042Z" fill="white"/>
</g>
</svg>
