<svg xmlns="http://www.w3.org/2000/svg" width="53" height="72" viewBox="0 0 53 72" fill="none">
  <path d="M7.87848 0.373047C7.35525 0.373047 6.90677 0.462409 6.45829 0.641132C3.54317 1.35602 1.22602 4.12624 0.628049 7.61134C0.403809 8.14751 0.403809 8.68368 0.403809 9.30921V58.4581C0.403809 65.8751 5.41184 71.8624 11.6158 71.8624H52.7265V62.9262H11.6158C9.5229 62.9262 7.87848 60.9602 7.87848 58.4581C7.87848 55.956 9.5229 53.99 11.6158 53.99H52.7265V4.84113C52.7265 2.339 51.0821 0.373047 48.9891 0.373047H45.2518V27.1815L37.7771 18.2454L30.3025 27.1815V0.373047H7.87848Z" fill="white"/>
</svg>