<svg width="24" height="24" viewBox="0 0 24 24" fill="none" xmlns="http://www.w3.org/2000/svg"><path d="M11.9999 13.229L7.97891 17.25C7.81224 17.4167 7.61091 17.4967 7.37491 17.49C7.13891 17.4827 6.93757 17.3957 6.77091 17.229C6.60424 17.0623 6.52091 16.8577 6.52091 16.615C6.52091 16.3717 6.60424 16.1667 6.77091 16L10.7709 12L6.74991 7.979C6.58324 7.81233 6.50324 7.60767 6.50991 7.365C6.51724 7.12167 6.60424 6.91667 6.77091 6.75C6.93757 6.58333 7.14224 6.5 7.38491 6.5C7.62824 6.5 7.83324 6.58333 7.99991 6.75L11.9999 10.771L16.0209 6.75C16.1876 6.58333 16.3922 6.5 16.6349 6.5C16.8782 6.5 17.0832 6.58333 17.2499 6.75C17.4166 6.91667 17.4999 7.12167 17.4999 7.365C17.4999 7.60767 17.4166 7.81233 17.2499 7.979L13.2289 12L17.2499 16.021C17.4166 16.1877 17.4999 16.389 17.4999 16.625C17.4999 16.861 17.4166 17.0623 17.2499 17.229C17.0832 17.3957 16.8782 17.479 16.6349 17.479C16.3922 17.479 16.1876 17.3957 16.0209 17.229L11.9999 13.229Z" fill="#000000"></path></svg>