<svg width="24" height="24" viewBox="0 0 24 24" fill="#000000" xmlns="http://www.w3.org/2000/svg">
<path d="M9.54656 13.0034C11.3543 13.0034 12.8198 11.5379 12.8198 9.73007C12.8198 7.92228 11.3543 6.45678 9.54656 6.45678C7.73877 6.45678 6.27327 7.92228 6.27327 9.73007C6.27327 11.5379 7.73877 13.0034 9.54656 13.0034Z" fill="#000000"></path>
<path d="M9.54657 14.64C7.36165 14.64 3 15.7365 3 17.9133V18.7316C3 19.1817 3.36824 19.5499 3.81832 19.5499H15.2748C15.7249 19.5499 16.0931 19.1817 16.0931 18.7316V17.9133C16.0931 15.7365 11.7315 14.64 9.54657 14.64ZM14.8411 8.72352C15.103 9.36999 15.103 10.0901 14.8411 10.7366C14.6856 11.1212 14.7511 11.5549 15.0457 11.8495L15.0702 11.8741C15.5449 12.3487 16.355 12.2505 16.666 11.6531C17.2879 10.4665 17.2879 9.0754 16.6496 7.83973C16.3386 7.23418 15.5203 7.11961 15.0375 7.60242L15.0293 7.6106C14.7511 7.89702 14.6856 8.33891 14.8411 8.72352ZM17.8771 4.73011C17.5498 5.05744 17.5007 5.5648 17.7707 5.94123C19.3828 8.18343 19.3746 11.1867 17.7461 13.5107C17.4843 13.8789 17.5416 14.3863 17.8607 14.7054L17.8853 14.73C18.2862 15.131 18.9654 15.0982 19.3091 14.6482C21.5595 11.7513 21.5677 7.79882 19.3091 4.81195C18.9654 4.36187 18.2781 4.32914 17.8771 4.73011Z" fill="#000000"></path>
</svg>